{"title":"Removal.2011.DVDRip.XViD.AC3-SIC","uid":6923281,"size":1512782859,"categoryP":"video","categoryS":"movies","magnet":"?xt=urn:btih:edfe48795717f89586fc8ae374c41aadb115d51c&amp;dn=Removal.2011.DVDRip.XViD.AC3-SIC&amp;tr=udp%3A%2F%2Ftracker.openbittorrent.com%3A80&amp;tr=udp%3A%2F%2Fopen.demonii.com%3A1337&amp;tr=udp%3A%2F%2Ftracker.coppersurfer.tk%3A6969&amp;tr=udp%3A%2F%2Fexodus.desync.com%3A6969","seeders":0,"leechers":0,"uploader":"TvTeam","files":5,"time":1325344543,"description":". \n &lt;a href=&quot;\nhttp://www.torrenting.com&quot; rel=&quot;nofollow&quot; target=&quot;_NEW&quot;&gt;\nhttp://www.torrenting.com&lt;/a&gt;          :     Once &amp; For all ;)\n\n\n               www . Torrenting . Com \n\n(((((((((((((= Enjoy No RAR releases =))))))))))))))))))))\n\n\n...................................NFO:....................................\n\n.\n\n\n\n\n\nUUUUUUUUUUUUUUUUUUUUUUUU\nUUUUUUUUUUUUUUUUUUUUUUUUUUUUUU\nUUUUUUUUUUUUUUU\nUUUUUUUUU\nUUUUUU\nUUUUUUU\nUUUUUUUUUUU\nUUUUUUUUUUU\nUUUUUUUUUUUUUU\nUUUUUUUUUUU\nUUUUUUUUU\nUUUUUUUU\nUUUUUUUU\nUUUUUUUU\nUUUUUUUUU\nUUUUUUUUU\nUUUUUUUUU\nUUUUUUUUU\nUUUUUUUUUUUUUU\nUUUUUUUUUUUUUUUUUUUUUUUU\nUUUUUUUUUUUUUUUUUUUUUUUUUU\nUUUUUUUUU\n\n\n\n\n\n\n\n\n\n\nU?U?U?U?U?U?U?\n\nEAAUAA?EAAUAAAAAUEAAUAA?AAA?UAAUUAAAAAU\nEAA?  EAA?AAAAAA?EAA?        AAAAAA?\n  AAAU        \n              \nUAAAAAU      UAAAAAUAAAAAA?UAAAAAU        AAAAAA?\n            AAAAAA?UAAAAAUAAAAAA?        UAAAAAU\n                    \n                    \nAAAU      AAAU      AAAAAAAAAUAAAAAAAAAUAAAAAAAAAUAAAU  AAAU   AAAU   AAAAAAAAAU\n\nRemoval.2011.DVDRip.XViD.AC3-SIC\n\nPoster:\n\nIMDB Link: &lt;a href=&quot;\nhttp://www.imdb.com/title/tt1493828/&quot; rel=&quot;nofollow&quot; target=&quot;_NEW&quot;&gt;\nhttp://www.imdb.com/title/tt1493828/&lt;/a&gt;\n\nDescription:\nGothic horror meets industrial-strength cleaning products in \nthis spine-tingler about a pill-popping cleaning service \nemployee and a sprawling mansion with secrets of its own. \n\nMediaInfo:\nFormat                           : AVI\nFormat/Info                      : Audio Video Interleave\nFile size                        : 1.39 GiB\nDuration                         : 1h 30mn\nOverall bit rate                 : 2 198 Kbps\n\nVideo\nID                               : 0\nFormat                           : MPEG-4 Visual\nFormat profile                   : Advanced Simple@L5\nFormat settings, BVOP            : 2\nFormat settings, QPel            : No\nFormat settings, GMC             : No warppoints\nFormat settings, Matrix          : Default (MPEG)\nMuxing mode                      : Packed bitstream\nCodec ID                         : XVID\nCodec ID/Hint                    : XviD\nDuration                         : 1h 30mn\nBit rate                         : 1 870 Kbps\nWidth                            : 720 pixels\nHeight                           : 304 pixels\nDisplay aspect ratio             : 2.35:1\nFrame rate                       : 23.976 fps\nColor space                      : YUV\nChroma subsampling               : 4:2:0\nBit depth                        : 8 bits\nScan type                        : Progressive\nCompression mode                 : Lossy\nBits/(Pixel*Frame)               : 0.356\nStream size                      : 1.18 GiB (85%)\nWriting library                  : XviD 64\n\nAudio\nID                               : 1\nFormat                           : AC-3\nFormat/Info                      : Audio Coding 3\nMode extension                   : CM (complete main)\nCodec ID                         : 2000\nDuration                         : 1h 30mn\nBit rate mode                    : Constant\nBit rate                         : 320 Kbps\nChannel(s)                       : 6 channels\nChannel positions                : Front: L C R, Side: L R, LFE\nSampling rate                    : 48.0 KHz\nBit depth                        : 16 bits\nCompression mode                 : Lossy\nStream size                      : 207 MiB (15%)\nAlignment                        : Aligned on interleaves\nInterleave, duration             : 64 ms (1.53 video frames)\nInterleave, preload duration     : 192 ms\n\nScreenshots:\n\nNote : \nJust Another fine release :P \n\nSource: \nNTSC DVDR-GRiLL :) Thanks \n\nEnjoy!\n\nRespects to T00NG0D, ELEKTRI4KA, PA, YeFsTe, Box, MrRep and everyone in the struggle...","torrent":{"xt":"urn:btih:edfe48795717f89586fc8ae374c41aadb115d51c","amp;dn":"Removal.2011.DVDRip.XViD.AC3-SIC","amp;tr":["udp%3A%2F%2Ftracker.openbittorrent.com%3A80","udp%3A%2F%2Fopen.demonii.com%3A1337","udp%3A%2F%2Ftracker.coppersurfer.tk%3A6969","udp%3A%2F%2Fexodus.desync.com%3A6969"],"infoHash":"edfe48795717f89586fc8ae374c41aadb115d51c","infoHashBuffer":{"type":"Buffer","data":[237,254,72,121,87,23,248,149,134,252,138,227,116,196,26,173,177,21,213,28]},"announce":[],"urlList":[]}}